<?xml version="1.0" standalone="no"?>
<!DOCTYPE svg PUBLIC "-//W3C//DTD SVG 20010904//EN"
 "http://www.w3.org/TR/2001/REC-SVG-20010904/DTD/svg10.dtd">
<svg version="1.0" xmlns="http://www.w3.org/2000/svg"
 width="1024.000000pt" height="1024.000000pt" viewBox="0 0 1024.000000 1024.000000"
 preserveAspectRatio="xMidYMid meet">

<g transform="translate(0.000000,1024.000000) scale(0.100000,-0.100000)"
fill="#000000" stroke="none">
<path d="M0 5120 l0 -5120 5120 0 5120 0 0 5120 0 5120 -5120 0 -5120 0 0
-5120z m5475 3230 c424 -49 851 -183 1190 -372 307 -171 520 -334 771 -590
351 -357 597 -755 755 -1218 120 -349 171 -664 172 -1040 0 -475 -91 -914
-281 -1348 -93 -213 -268 -497 -430 -698 -293 -364 -673 -670 -1087 -874 -336
-165 -651 -260 -1056 -317 -175 -24 -623 -24 -798 1 -868 122 -1603 541 -2146
1221 -95 118 -240 343 -314 485 -194 374 -285 674 -353 1160 -20 147 -17 611
5 780 51 376 144 681 313 1020 147 294 277 489 492 732 343 390 835 721 1315
887 313 108 559 158 912 185 84 6 445 -3 540 -14z m4230 -7607 c23 -60 96
-133 157 -158 27 -11 48 -23 48 -26 0 -4 -21 -14 -47 -24 -60 -23 -133 -96
-158 -157 -11 -27 -23 -48 -26 -48 -4 0 -14 21 -24 47 -23 60 -96 133 -157
158 -27 11 -48 23 -48 26 0 4 21 14 47 24 60 23 133 96 158 157 11 27 23 48
26 48 4 0 14 -21 24 -47z"/>
<path d="M4934 8250 c-580 -34 -1137 -229 -1609 -563 -255 -181 -463 -375
-644 -602 -373 -467 -577 -945 -667 -1560 -26 -175 -26 -620 -1 -800 64 -450
192 -828 398 -1178 437 -742 1141 -1270 1963 -1473 289 -71 651 -104 929 -85
597 42 1068 201 1557 526 303 202 550 436 768 730 135 182 197 283 302 490
156 309 243 596 297 975 22 155 25 661 5 805 -100 709 -403 1322 -904 1827
-393 395 -938 702 -1471 828 -276 65 -637 96 -923 80z m596 -74 c658 -93 1257
-384 1727 -839 257 -249 456 -523 616 -847 99 -199 149 -325 203 -515 223
-775 129 -1636 -257 -2337 -239 -436 -585 -812 -998 -1087 -144 -96 -186 -120
-332 -192 -293 -145 -599 -241 -924 -290 -178 -26 -561 -37 -726 -20 -738 76
-1374 375 -1890 890 -187 187 -259 275 -394 476 -365 546 -539 1198 -503 1884
33 641 264 1243 677 1761 324 409 829 772 1326 954 228 84 530 152 778 176
133 13 572 4 697 -14z"/>
<path d="M4750 8130 c-191 -25 -297 -46 -441 -85 -823 -226 -1532 -816 -1909
-1590 -144 -294 -237 -604 -287 -955 -24 -171 -24 -572 0 -752 91 -679 357
-1237 823 -1726 265 -279 531 -471 889 -642 424 -204 818 -290 1317 -290 215
0 307 8 508 41 464 77 918 279 1325 588 117 89 412 379 509 501 351 443 560
932 637 1495 29 209 32 593 6 785 -79 576 -290 1071 -647 1520 -108 136 -337
365 -470 470 -453 359 -983 580 -1550 645 -186 21 -533 19 -710 -5z m500
-1184 c117 -46 780 -298 1011 -386 184 -70 184 -70 183 -108 0 -17 -1 -536 -2
-1152 l-2 -1119 -258 -185 c-142 -101 -323 -227 -403 -279 -235 -153 -627
-377 -660 -377 -38 0 -473 252 -724 420 -157 105 -557 389 -584 415 -11 11
-15 201 -19 1163 l-5 1149 94 36 c52 20 288 110 524 200 237 91 489 187 560
215 72 28 139 51 150 51 10 1 71 -19 135 -43z"/>
<path d="M4943 6819 c-98 -37 -293 -111 -433 -164 -140 -53 -337 -128 -437
-167 l-183 -71 0 -1087 0 -1086 166 -123 c324 -240 729 -499 974 -624 l95 -49
105 57 c176 95 384 222 609 373 176 118 458 318 495 353 6 5 11 448 14 1091 4
912 2 1085 -9 1094 -8 7 -102 45 -209 87 -179 69 -290 111 -827 315 l-182 69
-178 -68z m146 -198 l31 -22 25 19 c67 53 157 34 280 -59 104 -78 145 -99 196
-99 34 0 47 6 76 35 29 29 34 41 31 66 -4 27 -3 28 10 15 20 -19 19 -94 -2
-134 -22 -42 -88 -97 -135 -110 -119 -36 -335 12 -443 99 l-37 29 -44 -33
c-87 -66 -211 -107 -328 -107 -94 0 -152 19 -201 67 -66 65 -82 142 -41 197
15 20 15 20 9 -7 -9 -38 16 -81 58 -101 65 -31 109 -17 227 70 146 108 216
126 288 75z m889 -315 c15 -8 42 -30 61 -49 27 -28 32 -41 27 -61 -5 -20 1
-34 29 -65 19 -21 35 -44 35 -50 0 -6 -30 -40 -67 -74 -136 -127 -611 -552
-639 -572 -11 -7 -24 1 -54 34 -42 46 -41 45 -121 26 -32 -7 -110 57 -92 76 7
6 9 24 7 39 -5 24 5 37 93 116 395 355 507 457 575 521 81 76 99 83 146 59z
m-1245 -60 c18 -7 46 -29 64 -47 57 -60 67 -122 33 -198 -11 -24 -20 -53 -20
-65 0 -39 49 -122 111 -190 65 -71 64 -74 -25 -53 -47 11 -49 14 -60 57 -24
93 -96 173 -165 185 -51 8 -100 41 -124 82 -23 40 -26 127 -6 168 31 65 118
93 192 61z m-552 -252 c63 -22 79 -24 110 -15 51 15 115 14 148 -3 41 -22 88
-80 102 -127 8 -25 26 -52 45 -67 45 -36 182 -86 306 -113 57 -12 112 -26 123
-32 66 -34 613 -546 641 -599 8 -16 12 -28 10 -28 -3 0 -123 85 -268 190 -385
277 -550 385 -714 468 -111 56 -139 60 -199 28 -69 -37 -138 -36 -193 4 -53
38 -74 79 -81 160 -6 62 -8 65 -49 94 -34 24 -53 30 -95 30 -28 0 -58 -2 -66
-5 -24 -7 -24 21 1 30 41 17 103 12 179 -15z m850 -562 c30 -21 144 -105 254
-188 110 -82 231 -172 270 -199 47 -34 64 -51 52 -53 -9 -2 -67 34 -129 81
-62 46 -202 150 -310 231 -108 80 -200 151 -203 156 -12 20 13 9 66 -28z m10
-69 c27 -20 49 -40 49 -43 0 -4 -19 -13 -42 -20 -98 -29 -194 -95 -295 -204
-67 -72 -100 -91 -137 -77 -25 10 -36 30 -36 66 0 29 12 38 78 60 73 24 154
80 247 174 44 45 81 81 84 81 2 0 26 -17 52 -37z m12 -354 c12 -6 32 -21 45
-32 l22 -20 23 20 c37 34 63 43 124 43 74 0 112 -18 241 -113 112 -83 153
-101 224 -99 86 2 145 50 157 128 7 48 7 49 21 24 25 -44 18 -128 -15 -188
-88 -160 -306 -203 -560 -111 -85 31 -177 87 -197 118 -11 19 -14 18 -54 -19
-74 -68 -207 -122 -347 -142 -185 -26 -344 45 -406 182 -24 53 -26 98 -7 144
21 51 31 49 31 -6 0 -44 4 -53 37 -83 20 -19 55 -39 79 -45 75 -21 138 2 256
92 107 82 184 118 249 118 31 0 65 -5 77 -11z m-566 -418 c43 -20 52 -29 57
-56 7 -37 83 -145 101 -145 7 0 16 10 22 23 19 41 110 132 160 160 143 77 437
77 590 -1 37 -19 117 -98 159 -157 l21 -29 32 34 c31 34 81 123 81 146 0 6 18
16 41 23 22 7 58 28 80 48 l39 35 0 -185 c0 -194 -3 -219 -25 -211 -10 4 -15
-7 -19 -40 -3 -25 -9 -67 -12 -93 -7 -55 -34 -132 -60 -171 l-18 -27 -6 28
c-5 28 -6 28 -43 -30 -21 -32 -54 -71 -73 -86 l-34 -28 0 58 -1 58 -29 -63
c-38 -82 -64 -118 -113 -153 -50 -36 -57 -36 -57 1 0 34 -14 39 -30 11 -5 -11
-52 -45 -103 -77 -50 -31 -99 -62 -107 -69 -13 -11 -30 -4 -110 45 -52 31
-109 72 -126 89 -39 39 -44 39 -44 1 0 -28 -2 -30 -21 -20 -64 35 -147 142
-164 212 -12 47 -24 21 -18 -40 l6 -57 -28 25 c-47 42 -73 73 -97 118 -27 49
-38 53 -38 15 l0 -28 -20 30 c-28 42 -50 119 -58 211 -6 65 -10 79 -23 76 -22
-3 -29 54 -29 245 l0 155 33 -28 c18 -16 56 -40 84 -53z"/>
<path d="M5820 6199 c-41 -39 -193 -177 -337 -307 -240 -216 -284 -262 -252
-262 15 0 37 19 333 289 143 130 282 256 308 279 46 42 61 73 36 72 -7 -1 -47
-32 -88 -71z"/>
<path d="M5966 6101 c-17 -19 -17 -21 10 -56 22 -29 25 -38 14 -45 -9 -6 -25
1 -47 21 -38 32 -44 34 -61 17 -17 -17 -15 -35 10 -68 17 -23 19 -33 10 -42
-9 -9 -19 -6 -41 16 -53 50 -93 15 -50 -44 33 -45 13 -59 -36 -26 -36 25 -39
25 -57 10 -17 -17 -17 -18 8 -51 14 -19 23 -41 20 -49 -5 -13 -12 -11 -39 10
-38 29 -59 32 -77 11 -9 -11 -6 -21 16 -50 20 -26 24 -39 16 -47 -8 -8 -22 -4
-52 17 -33 23 -42 25 -55 15 -21 -17 -19 -43 5 -65 11 -10 20 -24 20 -31 0
-23 -21 -26 -43 -7 -34 31 -45 35 -67 23 -26 -14 -25 -26 6 -63 23 -27 24 -32
10 -46 -14 -14 -18 -12 -44 12 -33 32 -43 33 -66 9 -15 -18 -14 -21 15 -58 17
-21 32 -40 33 -41 2 -3 112 94 462 406 76 69 156 140 177 158 28 25 33 33 19
33 -10 0 -29 11 -42 25 -28 30 -51 32 -74 6z"/>
<path d="M4630 6213 c-28 -10 -59 -45 -65 -74 -15 -69 67 -169 138 -169 45 0
95 41 103 85 15 82 -100 186 -176 158z"/>
<path d="M4293 5930 c-56 -34 -57 -112 -2 -175 80 -91 209 -60 209 51 0 107
-119 178 -207 124z"/>
<path d="M4990 5565 c-26 -31 13 -82 44 -56 19 16 21 42 4 59 -16 16 -33 15
-48 -3z"/>
<path d="M5000 4505 c-106 -30 -180 -93 -180 -153 0 -54 101 -106 158 -83 30
13 52 47 52 81 0 18 7 20 90 20 64 0 92 -4 94 -12 3 -7 7 -26 10 -41 5 -18 18
-33 41 -44 31 -15 37 -15 80 1 63 24 82 55 66 106 -23 76 -130 130 -271 136
-57 3 -103 -1 -140 -11z"/>
</g>
</svg>
